<?xml version="1.0" standalone="no"?><!DOCTYPE svg PUBLIC "-//W3C//DTD SVG 1.1//EN" "http://www.w3.org/Graphics/SVG/1.1/DTD/svg11.dtd"><svg t="1677142277009" class="icon" viewBox="0 0 1024 1024" version="1.1" xmlns="http://www.w3.org/2000/svg" p-id="6012" xmlns:xlink="http://www.w3.org/1999/xlink" width="128" height="128"><path d="M540.2 522.9m-420.2 0a420.2 420.2 0 1 0 840.4 0 420.2 420.2 0 1 0-840.4 0Z" fill="#FFCC00" p-id="6013"></path><path d="M214.8 355.2c-1.1 0-2.3-0.3-3.4-0.8-3.6-1.9-5-6.3-3.1-9.9 13.3-25.5 29.4-49.5 47.9-71.5a7.3 7.3 0 0 1 10.3-0.9 7.3 7.3 0 0 1 0.9 10.3c-17.9 21.2-33.4 44.3-46.1 68.8-1.3 2.6-3.8 4-6.5 4zM810.4 709.6c-1.4 0-2.8-0.4-4-1.2-3.4-2.2-4.3-6.8-2.1-10.1 8.7-13.2 16.7-27.2 23.6-41.4 1.8-3.6 6.2-5.1 9.8-3.4 3.6 1.8 5.1 6.2 3.4 9.8-7.2 14.8-15.5 29.3-24.6 43.1-1.4 2.1-3.8 3.2-6.1 3.2zM288.4 256.7c-1.9 0-3.8-0.7-5.3-2.2-2.8-2.9-2.7-7.5 0.2-10.4l3-2.8c2.9-2.8 7.6-2.7 10.3 0.3 2.8 2.9 2.7 7.6-0.3 10.4l-2.9 2.8c-1.3 1.2-3.1 1.9-5 1.9z" fill="#FFFFFF" p-id="6014"></path><path d="M193.4 218.8c-2 0-4-0.8-5.4-2.4-2.7-3-2.5-7.6 0.5-10.3 2-1.8 4-3.7 6.1-5.5 3-2.7 7.7-2.4 10.3 0.7 2.7 3 2.4 7.7-0.7 10.3-2 1.7-3.9 3.5-5.9 5.3-1.4 1.2-3.2 1.9-4.9 1.9zM491.7 934.2C256 934.2 64.2 742.5 64.2 506.7c0-97.2 33.5-192.3 94.3-267.8 2.5-3.1 7.1-3.6 10.3-1.1s3.6 7.1 1.1 10.3c-58.7 72.9-91 164.8-91 258.6 0 227.6 185.2 412.9 412.9 412.9 126.6 0 244.5-56.9 323.4-156.2 2.5-3.2 7.1-3.7 10.3-1.2s3.7 7.1 1.2 10.3c-81.8 102.8-203.9 161.7-335 161.7zM858.4 719.3c-1.2 0-2.4-0.3-3.6-0.9-3.5-2-4.8-6.4-2.8-10 34.4-61.3 52.5-131 52.5-201.6C904.5 279.2 719.3 94 491.6 94c-74.1 0-146.8 19.9-210.2 57.4-3.5 2.1-8 0.9-10-2.6-2.1-3.5-0.9-8 2.6-10 65.7-39 141-59.5 217.7-59.5 235.7 0 427.5 191.8 427.5 427.5 0 73.2-18.8 145.4-54.4 208.8-1.3 2.3-3.8 3.7-6.4 3.7z" p-id="6015"></path><path d="M560.9 522.9l154.3-154.3c5.7-5.7 5.7-15 0-20.7s-15-5.7-20.7 0L540.2 502.2 385.8 347.9c-5.7-5.7-15-5.7-20.7 0s-5.7 15 0 20.7l154.3 154.3-154.3 154.4c-5.7 5.7-5.7 15 0 20.7 2.9 2.9 6.7 4.3 10.4 4.3s7.5-1.5 10.3-4.3l154.4-154.4L694.5 698c2.9 2.9 6.7 4.3 10.4 4.3s7.5-1.5 10.3-4.3c5.7-5.7 5.7-15 0-20.7L560.9 522.9z" fill="#FFFFFF" p-id="6016"></path></svg>