<?xml version="1.0" standalone="no"?><!DOCTYPE svg PUBLIC "-//W3C//DTD SVG 1.1//EN" "http://www.w3.org/Graphics/SVG/1.1/DTD/svg11.dtd"><svg t="1677116742149" class="icon" viewBox="0 0 1024 1024" version="1.1" xmlns="http://www.w3.org/2000/svg" p-id="7764" width="128" height="128" xmlns:xlink="http://www.w3.org/1999/xlink"><path d="M512 1024C230.4 1024 0 793.6 0 512S230.4 0 512 0s512 230.4 512 512-230.4 512-512 512z" fill="#F7BE15" p-id="7765"></path><path d="M1024 512c0-33.784-3.4-66.8-9.72-98.8l-245.152-95.728-127.2-35.056-132.256 35.056-131.44-33.984-128.104 33.984v432.232l235.176 273.12c9.784 0.616 19.632 1.008 29.552 1.096C795.144 1022.368 1024 792.648 1024 512z" fill="#DB8E1F" p-id="7766"></path><path d="M375 711.384l-125.28 32.824V316.144l125.28-32.824" fill="#DACEB6" p-id="7767"></path><path d="M501 316.144l-125.272-32.824v428.064l125.272 32.824M627.824 413.928V283.32l125.28 32.824v428.064l-125.28-32.824v-110.096" fill="#F4EDDD" p-id="7768"></path><path d="M627.824 407.776v303.608l-125.28 32.824V316.144l125.28-32.824z" fill="#DACEB6" p-id="7769"></path><path d="M251.192 751.88l-7.296-5.624V318.2l4.344-5.624 125.28-32.824c3.16-0.8 6.296 1.056 7.104 4.152a5.806 5.806 0 0 1-4.152 7.096l-120.936 31.688V738.72l117.992-30.912a5.794 5.794 0 0 1 7.104 4.152 5.8 5.8 0 0 1-4.152 7.096l-125.288 32.824z" fill="#474341" p-id="7770"></path><path d="M501 752.072c-0.48 0-0.976-0.064-1.472-0.192l-125.28-32.824-4.344-5.624V396.496a5.816 5.816 0 0 1 11.632 0v312.456l120.936 31.688a5.814 5.814 0 0 1 4.152 7.104 5.814 5.814 0 0 1-5.624 4.328M375.72 355.8a5.81 5.81 0 0 1-5.816-5.816v-64.608l7.296-5.632 125.28 32.824a5.82 5.82 0 0 1 4.152 7.104 5.79 5.79 0 0 1-7.104 4.152l-117.984-30.912v57.072a5.822 5.822 0 0 1-5.824 5.816" fill="#474341" p-id="7771"></path><path d="M502.536 499.744a5.81 5.81 0 0 1-5.816-5.816V318.2l4.344-5.624 125.28-32.824 7.296 5.632v124.456a5.816 5.816 0 0 1-11.632 0v-116.928l-113.648 29.776v171.248a5.816 5.816 0 0 1-5.824 5.808M504.016 751.88l-7.296-5.624V581.12a5.814 5.814 0 0 1 5.816-5.808c3.216 0 5.816 2.6 5.816 5.808v157.6L622 708.944v-114.152c0-3.216 2.6-5.816 5.816-5.816s5.816 2.6 5.816 5.816v118.64l-4.344 5.624-125.272 32.824z" fill="#474341" p-id="7772"></path><path d="M751.624 751.88l-125.28-32.824-4.344-5.624v-110.088a5.81 5.81 0 0 1 5.816-5.808c3.216 0 5.816 2.6 5.816 5.808v105.6l113.648 29.776V322.688l-113.648-29.776v123.072c0 3.216-2.6 5.816-5.816 5.816S622 419.2 622 415.984v-130.608l7.296-5.632 125.28 32.824 4.344 5.624v428.064l-7.296 5.624z" fill="#474341" p-id="7773"></path><path d="M653.352 583.336l60.288 66.696c5.024 5.568 13.232-2.68 8.224-8.224l-60.288-66.696c-5.032-5.568-13.24 2.68-8.224 8.224" fill="#E9495B" p-id="7774"></path><path d="M664.392 648.008l56.208-66.08c4.824-5.664-3.368-13.936-8.224-8.224l-56.208 66.08c-4.824 5.672 3.36 13.936 8.224 8.224" fill="#E9495B" p-id="7775"></path><path d="M419.072 620.536c-4.968 0-9.568-1.288-13.28-3.736a4.1 4.1 0 0 1 4.504-6.848c2.336 1.544 5.456 2.384 8.784 2.384h0.016c1.776 0 3.536-0.232 5.24-0.688 1.48-0.4 2.896-0.928 4.28-1.56a4.108 4.108 0 0 1 5.44 2.008 4.104 4.104 0 0 1-2.008 5.44c-1.8 0.824-3.664 1.512-5.592 2.032a28.44 28.44 0 0 1-7.352 0.96h-0.032v0.008z m24.696-11.728c-1.16 0-2.32-0.496-3.128-1.456a4.1 4.1 0 0 1 0.48-5.784l2.656 3.136-2.088-3.616c5.384-4.608 10.648-9.56 16.112-15.152a4.104 4.104 0 0 1 5.8-0.064c1.616 1.584 1.648 4.184 0.064 5.8-5.64 5.768-11.072 10.88-16.616 15.632l-0.624 0.536c-0.768 0.64-1.712 0.968-2.656 0.968m-43.376-5.144a4.106 4.106 0 0 1-4.04-3.432 58.454 58.454 0 0 1-0.44-3.248 108.856 108.856 0 0 1-0.624-11.704 111.596 111.596 0 0 1 0.376-9.256c0.176-2.256 2.2-3.936 4.416-3.76a4.112 4.112 0 0 1 3.76 4.424 101.896 101.896 0 0 0-0.344 8.576c0 3.656 0.192 7.288 0.576 10.816 0.104 0.92 0.224 1.864 0.376 2.8a4.102 4.102 0 0 1-3.376 4.72 3.314 3.314 0 0 1-0.68 0.064m71.408-22.672a4.1 4.1 0 0 1-2.728-1.04 4.088 4.088 0 0 1-0.344-5.792c5.112-5.744 10.072-11.64 14.96-17.608a4.104 4.104 0 0 1 6.344 5.208c-4.968 6.04-9.992 12.024-15.168 17.848a4.106 4.106 0 0 1-3.064 1.384m143.192-0.104c-0.68 0-1.376-0.048-2.08-0.16-6.496-1.008-11.176-6.584-12.512-14.904a4.094 4.094 0 0 1 3.392-4.704 4.076 4.076 0 0 1 4.704 3.4c0.36 2.224 1.632 7.472 5.68 8.096 1.488 0.24 2.976-0.128 4.984-1.04a4.112 4.112 0 0 1 5.424 2.04 4.102 4.102 0 0 1-2.04 5.432c-2.728 1.24-5.2 1.84-7.552 1.84m20.056-9.416a4.102 4.102 0 0 1-2.04-7.664l20.184-11.552a4.104 4.104 0 0 1 4.072 7.128l-20.184 11.552c-0.64 0.36-1.336 0.536-2.032 0.536m-232.888-7.088a4.102 4.102 0 0 1-4.024-4.944c1.536-7.296 3.704-14.776 6.6-22.872a4.104 4.104 0 1 1 7.728 2.768c-2.784 7.736-4.84 14.872-6.296 21.784a4.112 4.112 0 0 1-4.008 3.264m302.328-0.408c-0.744 0-1.496-0.2-2.168-0.624a4.09 4.09 0 0 1-1.304-5.648c0.528-0.848 0.784-1.744 0.784-2.728 0.008-1.144-0.344-2.384-1.016-3.616a4.11 4.11 0 0 1 1.632-5.576c1.96-1.088 4.472-0.352 5.56 1.64 1.336 2.448 2.032 5.056 2.024 7.568 0 2.52-0.68 4.888-2.032 7.056a4.102 4.102 0 0 1-3.48 1.928m-98.52-10.792a4.1 4.1 0 0 1-3.968-5.152c1.92-7.24 5.144-14.528 9.832-22.272a4.126 4.126 0 0 1 5.632-1.384 4.108 4.108 0 0 1 1.384 5.64c-4.28 7.064-7.192 13.648-8.92 20.12a4.094 4.094 0 0 1-3.96 3.048m63.4-1.352a4.102 4.102 0 0 1-2.008-7.68c7.424-4.16 15.424-8 24.216-7.336a4.1 4.1 0 0 1 3.76 4.416 4.072 4.072 0 0 1-4.416 3.76c-6.152-0.496-12.216 2.2-19.552 6.312-0.632 0.36-1.32 0.528-2 0.528m-172.256-1.224a4.1 4.1 0 0 1-3.2-6.672l1.576-1.96a1582.192 1582.192 0 0 1 13.104-16.16 4.108 4.108 0 0 1 5.776-0.552c1.744 1.44 1.992 4.032 0.552 5.776-4.392 5.32-8.72 10.704-13.04 16.072l-1.568 1.952a4.08 4.08 0 0 1-3.2 1.544m-82.488-23.68a4.098 4.098 0 0 1-3.76-5.728c2.736-6.312 5.888-13.072 9.952-21.256a4.106 4.106 0 0 1 7.36 3.64c-4 8.056-7.104 14.688-9.776 20.864a4.12 4.12 0 0 1-3.776 2.48m107.64-6.84c-0.96 0-1.912-0.328-2.704-1.008a4.11 4.11 0 0 1-0.392-5.792l1.808-2.064a333.278 333.278 0 0 1 14.216-15.176c1.6-1.6 4.2-1.6 5.8 0 1.608 1.6 1.608 4.2 0 5.8-4.544 4.544-9.2 9.52-13.848 14.784l-1.792 2.048c-0.8 0.936-1.936 1.408-3.088 1.408m102.304-1.512a4.106 4.106 0 0 1-3.272-6.584c3.76-4.968 7.736-9.832 11.688-14.648l2.96-3.616a4.1 4.1 0 1 1 6.36 5.184l-2.968 3.632c-3.88 4.736-7.8 9.512-11.496 14.4a4.082 4.082 0 0 1-3.272 1.632m-74.616-26.688a4.096 4.096 0 0 1-3.072-1.384 4.11 4.11 0 0 1 0.36-5.792c6.176-5.44 12.424-10.384 18.592-14.712a4.102 4.102 0 0 1 5.712 1.008 4.096 4.096 0 0 1-1 5.712 202.704 202.704 0 0 0-17.872 14.144 4.09 4.09 0 0 1-2.72 1.024m-118.104-0.56a4.11 4.11 0 0 1-3.664-5.968l0.784-1.536a1818.34 1818.34 0 0 0 6.592-13.016c1.008-2.008 2-4.048 2.96-6.12a4.088 4.088 0 0 1 5.448-1.992 4.108 4.108 0 0 1 2 5.448 203.08 203.08 0 0 1-3.08 6.352c-2.16 4.328-4.392 8.688-6.616 13.064l-0.784 1.536a4.07 4.07 0 0 1-3.64 2.232m216.68-4.16a4.106 4.106 0 0 1-3.592-6.08c3.024-5.504 4.624-10.664 4.624-14.92a13.66 13.66 0 0 0-0.576-4.144 4.094 4.094 0 0 1 2.712-5.128 4.1 4.1 0 0 1 5.128 2.712c0.64 2.056 0.952 4.272 0.944 6.584 0 5.688-1.896 12.048-5.632 18.848a4.14 4.14 0 0 1-3.608 2.128m-66.592-18.4a4.108 4.108 0 0 1-3.576-2.088 4.108 4.108 0 0 1 1.56-5.592c7.16-4.04 14.464-7.416 21.704-10.032a4.1 4.1 0 1 1 2.784 7.72c-6.808 2.456-13.696 5.64-20.456 9.456-0.64 0.36-1.328 0.536-2.016 0.536m-133.464-13.288a4.102 4.102 0 0 1-3.856-5.488c2.784-7.752 4.632-15.04 5.496-21.656a4.11 4.11 0 0 1 4.608-3.536 4.11 4.11 0 0 1 3.536 4.6c-0.952 7.208-2.944 15.064-5.912 23.368a4.118 4.118 0 0 1-3.872 2.712m170.176-0.944a4.106 4.106 0 0 1-0.84-8.12 131.36 131.36 0 0 1 5.296-1c7.76-1.288 14.464-1.088 19.792 0.624a4.11 4.11 0 0 1 2.664 5.16 4.112 4.112 0 0 1-5.16 2.648c-4.08-1.296-9.528-1.408-15.936-0.336-1.656 0.272-3.312 0.592-4.952 0.936a3.96 3.96 0 0 1-0.864 0.088m-347.824-24.592a4.08 4.08 0 0 1-3.04-1.352 4.108 4.108 0 0 1 0.296-5.792c5.784-5.24 11.952-10.28 18.304-14.984a4.1 4.1 0 1 1 4.872 6.6 234.94 234.94 0 0 0-17.68 14.464c-0.784 0.72-1.76 1.064-2.752 1.064m183.608-13.2a4.112 4.112 0 0 1-4.072-3.64c-0.84-7.352-3.272-13.984-7.216-19.696l6.76-4.648c0.096 0.136 0.2 0.328 0.28 0.48 4.424 6.344 7.328 14.224 8.328 22.936a4.1 4.1 0 0 1-3.616 4.536 2.882 2.882 0 0 1-0.464 0.032m-152.2-10.744c-1.344 0-2.68-0.672-3.464-1.896a4.108 4.108 0 0 1 1.248-5.664c6.64-4.24 13.544-8.2 20.512-11.76a4.122 4.122 0 0 1 5.52 1.792 4.1 4.1 0 0 1-1.792 5.52c-6.736 3.44-13.4 7.272-19.824 11.368-0.68 0.432-1.44 0.64-2.2 0.64m34.912-18.48a4.104 4.104 0 0 1-1.624-7.872 246.866 246.866 0 0 1 21.264-7.968l0.888-0.288a4.086 4.086 0 0 1 5.16 2.656 4.108 4.108 0 0 1-2.664 5.16l-0.872 0.28a236.516 236.516 0 0 0-20.544 7.704c-0.52 0.224-1.064 0.328-1.608 0.328m97.872-3.816c-0.824 0-1.648-0.248-2.368-0.752-5.576-3.944-12.408-6.936-19.728-8.64a4.1 4.1 0 0 1-3.072-4.928 4.086 4.086 0 0 1 4.928-3.064c8.352 1.944 16.168 5.376 22.616 9.936a4.1 4.1 0 0 1-2.376 7.448m-60.368-8.544a4.1 4.1 0 0 1-4.008-3.24 4.094 4.094 0 0 1 3.144-4.872c8.336-1.8 15.944-2.68 23.288-2.68l0.64 4.104-0.08 4.104h-0.04c-7.296 0-14.336 0.816-22.08 2.488a3.576 3.576 0 0 1-0.864 0.096" fill="#8B7A5C" p-id="7776"></path><path d="M544.488 374.072a221.744 221.744 0 0 0 10.016-9.184h-5.8l6.864 6.496c3.832 3.632 9.648-2.16 5.8-5.8l-6.856-6.496c-1.624-1.544-4.176-1.584-5.8 0a226.374 226.374 0 0 1-10.016 9.176c-4.016 3.464 1.808 9.248 5.792 5.808M680.312 492.224a337.916 337.916 0 0 0 13.024-15.472h-5.8c2.968 3.648 5.944 7.296 8.92 10.944 3.336 4.096 9.112-1.744 5.8-5.8l-8.92-10.944c-1.288-1.584-4.52-1.616-5.8 0a338.088 338.088 0 0 1-13.032 15.472c-3.504 3.928 2.28 9.744 5.808 5.8M657.528 381.808a337.916 337.916 0 0 0 13.024-15.472h-5.8l8.92 10.944c3.336 4.096 9.112-1.744 5.8-5.8l-8.92-10.944c-1.288-1.584-4.52-1.616-5.8 0a338.088 338.088 0 0 1-13.032 15.472c-3.504 3.928 2.28 9.744 5.808 5.8M571.896 419.064a337.916 337.916 0 0 0 13.024-15.472h-5.8c2.968 3.648 5.944 7.296 8.92 10.944 3.336 4.096 9.112-1.744 5.8-5.8-2.968-3.648-5.944-7.296-8.92-10.944-1.288-1.584-4.52-1.616-5.8 0a338.088 338.088 0 0 1-13.032 15.472c-3.512 3.92 2.272 9.744 5.808 5.8M544.488 553.992a221.744 221.744 0 0 0 10.016-9.184h-5.8l6.864 6.496c3.832 3.632 9.648-2.16 5.8-5.8l-6.856-6.496c-1.624-1.544-4.176-1.584-5.8 0a226.374 226.374 0 0 1-10.016 9.176c-4.016 3.464 1.808 9.248 5.792 5.808M582.864 635.192a221.744 221.744 0 0 0 10.016-9.184h-5.8l6.864 6.496c3.832 3.632 9.648-2.16 5.8-5.8a2629.12 2629.12 0 0 1-6.856-6.496c-1.624-1.544-4.176-1.584-5.8 0a226.374 226.374 0 0 1-10.016 9.176c-4.008 3.464 1.816 9.248 5.792 5.808M441.808 658a221.744 221.744 0 0 0 10.016-9.184h-5.8l6.864 6.496c3.832 3.632 9.648-2.16 5.8-5.8a2629.12 2629.12 0 0 1-6.856-6.496c-1.624-1.544-4.176-1.584-5.8 0a226.374 226.374 0 0 1-10.016 9.176c-4.008 3.464 1.816 9.248 5.792 5.808M530.976 702.992A337.916 337.916 0 0 0 544 687.52h-5.8c2.968 3.648 5.944 7.296 8.92 10.944 3.336 4.096 9.112-1.744 5.8-5.8-2.968-3.648-5.944-7.296-8.92-10.944-1.288-1.584-4.52-1.616-5.8 0a338.088 338.088 0 0 1-13.032 15.472c-3.504 3.92 2.28 9.744 5.808 5.8M334.672 453.808a221.744 221.744 0 0 0 10.016-9.184h-5.8l6.864 6.496c3.832 3.632 9.648-2.16 5.8-5.8a2629.12 2629.12 0 0 1-6.856-6.496c-1.624-1.544-4.176-1.584-5.8 0A226.374 226.374 0 0 1 328.88 448c-4.008 3.464 1.816 9.248 5.792 5.808M278.648 526.456a337.916 337.916 0 0 0 13.024-15.472h-5.8c2.968 3.648 5.944 7.296 8.92 10.944 3.336 4.096 9.112-1.744 5.8-5.8-2.968-3.648-5.944-7.296-8.92-10.944-1.288-1.584-4.52-1.616-5.8 0a338.088 338.088 0 0 1-13.032 15.472c-3.504 3.92 2.28 9.744 5.808 5.8M315.264 348.528a337.916 337.916 0 0 0 13.024-15.472h-5.8l8.92 10.944c3.336 4.096 9.112-1.744 5.8-5.8-2.968-3.648-5.944-7.296-8.92-10.944-1.288-1.584-4.52-1.616-5.8 0a338.088 338.088 0 0 1-13.032 15.472c-3.504 3.928 2.28 9.752 5.808 5.8M439.272 557.136a337.916 337.916 0 0 0 13.024-15.472h-5.8c2.968 3.648 5.944 7.296 8.92 10.944 3.336 4.096 9.112-1.744 5.8-5.8-2.968-3.648-5.944-7.296-8.92-10.944-1.288-1.584-4.52-1.616-5.8 0a338.088 338.088 0 0 1-13.032 15.472c-3.504 3.92 2.28 9.744 5.808 5.8M326.24 617.088a337.916 337.916 0 0 0 13.024-15.472h-5.8c2.968 3.648 5.944 7.296 8.92 10.944 3.336 4.096 9.112-1.744 5.8-5.8-2.968-3.648-5.944-7.296-8.92-10.944-1.288-1.584-4.52-1.616-5.8 0a338.088 338.088 0 0 1-13.032 15.472c-3.504 3.92 2.272 9.744 5.808 5.8M461.224 358.304a221.744 221.744 0 0 0 10.016-9.184h-5.8l6.864 6.496c3.832 3.632 9.648-2.16 5.8-5.8a2629.12 2629.12 0 0 1-6.856-6.496c-1.624-1.544-4.176-1.584-5.8 0a226.374 226.374 0 0 1-10.016 9.176c-4.016 3.472 1.808 9.248 5.792 5.808" fill="#92BE33" p-id="7777"></path><path d="M732.824 438.512a4.074 4.074 0 0 1-4.072-4.072v-26.024a4.074 4.074 0 0 1 8.144 0v26.024a4.068 4.068 0 0 1-4.072 4.072M732.824 388.024a4.074 4.074 0 0 1-4.072-4.072v-43.144l-56.608-19.272a4.086 4.086 0 0 1-2.544-5.168 4.048 4.048 0 0 1 5.168-2.544l59.36 20.216 2.76 3.856v46.056a4.056 4.056 0 0 1-4.064 4.072" fill="#DACEB6" p-id="7778"></path><path d="M270.824 717.536a4.108 4.108 0 0 1-4.104-4.104V692.08c0-2.264 1.84-4.104 4.104-4.104s4.104 1.84 4.104 4.104v21.352a4.098 4.098 0 0 1-4.104 4.104M270.824 673.544a4.108 4.108 0 0 1-4.104-4.104v-73.96c0-2.264 1.84-4.104 4.104-4.104s4.104 1.84 4.104 4.104v73.96a4.102 4.102 0 0 1-4.104 4.104" fill="#8B7A5C" p-id="7779"></path></svg>