<?xml version="1.0" standalone="no"?><!DOCTYPE svg PUBLIC "-//W3C//DTD SVG 1.1//EN" "http://www.w3.org/Graphics/SVG/1.1/DTD/svg11.dtd"><svg t="1675417180189" class="icon" viewBox="0 0 1024 1024" version="1.1" xmlns="http://www.w3.org/2000/svg" p-id="12690" width="128" height="128" xmlns:xlink="http://www.w3.org/1999/xlink"><path d="M512 0c282.88 0 512 229.12 512 512S794.88 1024 512 1024 0 794.88 0 512 229.12 0 512 0z" fill="#FFFFFF" p-id="12691"></path><path d="M371.2 294.4h256c42.24 0 76.8 34.56 76.8 76.8v320c0 28.16-23.04 51.2-51.2 51.2H371.2c-28.16 0-51.2-23.04-51.2-51.2V345.6c0-28.16 23.04-51.2 51.2-51.2z" fill="#046EA7" p-id="12692"></path><path d="M524.8 460.8h204.8c21.76 0 38.4 16.64 38.4 38.4v102.4c0 21.76-16.64 38.4-38.4 38.4H524.8c-21.76 0-38.4-16.64-38.4-38.4v-102.4c0-21.76 16.64-38.4 38.4-38.4z" fill="#FCCF0A" p-id="12693"></path><path d="M583.68 294.4l161.28-44.8-16.64 126.72z" fill="#FFFFFF" p-id="12694"></path></svg>