<?xml version="1.0" standalone="no"?><!DOCTYPE svg PUBLIC "-//W3C//DTD SVG 1.1//EN" "http://www.w3.org/Graphics/SVG/1.1/DTD/svg11.dtd"><svg t="1677033031319" class="icon" viewBox="0 0 1024 1024" version="1.1" xmlns="http://www.w3.org/2000/svg" p-id="5280" width="128" height="128" xmlns:xlink="http://www.w3.org/1999/xlink"><path d="M860.6 319l-109.2-49.8-341.9 155.4 103.1 47.8z" fill="#FFD524" p-id="5281"></path><path d="M81.1 336.4l419 194.1c3.9 1.8 8 2.7 12.2 2.7 4 0 8-0.8 11.7-2.5L943 346c10.4-4.6 17.2-14.9 17.3-26.3 0.1-11.4-6.6-21.8-16.9-26.6L515.1 97.5c-7.6-3.5-16.4-3.5-24 0l-66.4 30.2c-14.6 6.6-21 23.8-14.4 38.4 6.6 14.6 23.8 21 38.4 14.4l54.4-24.7 248.4 113.5L860.6 319l-348 153.4-103.1-47.8-246.7-114.3 104.8-47.7c14.6-6.6 21-23.8 14.4-38.4-6.6-14.6-23.8-21-38.4-14.4L81.3 283.7c-10.3 4.7-17 15-17 26.3s6.6 21.6 16.8 26.4z" fill="#333333" p-id="5282"></path><path d="M343.8 225.2c4 0 8.1-0.8 12-2.6l9.9-4.5c14.6-6.6 21-23.8 14.4-38.4-6.6-14.6-23.8-21-38.4-14.4l-9.9 4.5c-14.6 6.6-21 23.8-14.4 38.4 4.8 10.7 15.3 17 26.4 17zM919.3 513.6L512.6 699.8 105.9 504.4c-14.4-6.9-31.7-0.9-38.7 13.6-6.9 14.4-0.9 31.7 13.6 38.7l419 201.3c4 1.9 8.3 2.9 12.6 2.9 4.1 0 8.2-0.9 12.1-2.6l419-191.9c14.6-6.7 21-23.9 14.3-38.4-6.8-14.7-24-21.1-38.5-14.4z" fill="#333333" p-id="5283"></path><path d="M919.3 685.4L512.6 871.7 105.9 676.2c-14.4-6.9-31.7-0.9-38.7 13.6-6.9 14.4-0.9 31.7 13.6 38.7l419 201.3c4 1.9 8.3 2.9 12.6 2.9 4.1 0 8.2-0.9 12.1-2.6l419-191.9c14.6-6.7 21-23.9 14.3-38.4-6.8-14.6-24-21-38.5-14.4z" fill="#333333" p-id="5284"></path></svg>