<?xml version="1.0" standalone="no"?><!DOCTYPE svg PUBLIC "-//W3C//DTD SVG 1.1//EN" "http://www.w3.org/Graphics/SVG/1.1/DTD/svg11.dtd"><svg t="1677119902209" class="icon" viewBox="0 0 1024 1024" version="1.1" xmlns="http://www.w3.org/2000/svg" p-id="6152" width="128" height="128" xmlns:xlink="http://www.w3.org/1999/xlink"><path d="M970.666667 347.733333c-21.333333-27.733333-53.333333-42.666667-87.466667-42.666666h-14.933333V277.333333c0-59.733333-49.066667-108.8-108.8-108.8H422.4c-4.266667 0-10.666667-2.133333-12.8-4.266666l-66.133333-53.333334C324.266667 93.866667 298.666667 85.333333 275.2 85.333333H162.133333C102.4 85.333333 53.333333 134.4 53.333333 194.133333v633.6c0 59.733333 49.066667 108.8 108.8 108.8h612.266667c49.066667 0 91.733333-32 104.533333-81.066666l108.8-416c10.666667-29.866667 4.266667-64-17.066666-91.733334z m-66.133334 72.533334l-108.8 416c-2.133333 8.533333-10.666667 17.066667-21.333333 17.066666H183.466667c-8.533333 0-14.933333-6.4-17.066667-8.533333-2.133333-4.266667-6.4-10.666667-4.266667-19.2l108.8-416c2.133333-8.533333 10.666667-17.066667 21.333334-17.066667h590.933333c8.533333 0 14.933333 6.4 17.066667 8.533334 2.133333 2.133333 6.4 8.533333 4.266666 19.2z" fill="#80B8F8" p-id="6153"></path></svg>