<?xml version="1.0" standalone="no"?><!DOCTYPE svg PUBLIC "-//W3C//DTD SVG 1.1//EN" "http://www.w3.org/Graphics/SVG/1.1/DTD/svg11.dtd"><svg t="1680597212707" class="icon" viewBox="0 0 1024 1024" version="1.1" xmlns="http://www.w3.org/2000/svg" p-id="2788" width="128" height="128" xmlns:xlink="http://www.w3.org/1999/xlink"><path d="M0 0h1024v1024H0V0z" fill="#202425" opacity=".01" p-id="2789"></path><path d="M682.666667 744.106667a375.466667 375.466667 0 0 0 204.8-334.506667c0-207.36-168.106667-375.466667-375.466667-375.466667S136.533333 202.24 136.533333 409.6a375.466667 375.466667 0 0 0 204.8 334.506667V819.2a34.133333 34.133333 0 0 0 34.133334 34.133333h273.066666a34.133333 34.133333 0 0 0 34.133334-34.133333v-75.093333z" fill="#11AA66" p-id="2790"></path><path d="M341.333333 785.066667a34.133333 34.133333 0 0 0-34.133333 34.133333v68.266667a34.133333 34.133333 0 0 0 34.133333 34.133333h68.266667v34.133333a34.133333 34.133333 0 0 0 34.133333 34.133334h136.533334a34.133333 34.133333 0 0 0 34.133333-34.133334v-34.133333h68.266667a34.133333 34.133333 0 0 0 34.133333-34.133333v-68.266667a34.133333 34.133333 0 0 0-34.133333-34.133333H341.333333z" fill="#FFAA44" p-id="2791"></path><path d="M395.946667 348.16a34.133333 34.133333 0 1 0-40.96 54.613333l122.88 92.16V682.666667a34.133333 34.133333 0 0 0 68.266666 0v-187.733334l122.88-92.16a34.133333 34.133333 0 0 0-40.96-54.613333L512 435.2l-116.053333-87.04z" fill="#FFFFFF" p-id="2792"></path></svg>