<?xml version="1.0" standalone="no"?><!DOCTYPE svg PUBLIC "-//W3C//DTD SVG 1.1//EN" "http://www.w3.org/Graphics/SVG/1.1/DTD/svg11.dtd"><svg t="1673320318006" class="icon" viewBox="0 0 1024 1024" version="1.1" xmlns="http://www.w3.org/2000/svg" p-id="2768" width="128" height="128" xmlns:xlink="http://www.w3.org/1999/xlink"><path d="M175.776914 292.571429h371.741257l35.108572-58.397258h-181.8624c-16.442514 0-18.783086-13.370514-14.628572-21.152914 12.873143-24.049371 39.7312-75.776 80.574172-155.2384 16.676571-23.610514 35.050057-35.401143 55.149714-35.401143 24.341943 0 35.693714 11.790629 34.026057 35.401143l-58.133943 116.9408c106.232686-1.404343 164.571429-1.404343 175.016229 0 8.192 1.082514 11.117714 0.321829 17.6128 10.532572 6.524343 10.210743-0.117029 14.1312 0 18.519771-8.250514 14.511543-12.756114 21.884343-17.6128 30.398171C648.8064 273.934629 635.582171 292.571429 645.12 292.571429h203.893029c11.849143 0 44.763429-3.861943 66.472228 22.293942 14.453029 17.437257 21.357714 39.789714 20.743314 66.998858 0.468114 116.677486 0.702171 184.290743 0.702172 202.839771 0 3.803429 19.0464-69.485714 57.841371-33.850514 17.642057 34.289371 21.328457 163.050057 0 209.832228C965.485714 813.290057 936.930743 729.673143 936.228571 732.511086c0 0 0.702171 109.626514 0.702172 177.005714 0 6.144 4.973714 38.5024-21.445486 62.142171-17.6128 15.798857-39.789714 23.610514-66.472228 23.522743l-703.429486-6.465828c-19.456-2.984229-34.523429-12.170971-45.290057-27.589486-10.708114-15.389257-14.921143-33.850514-12.522057-55.413029v-173.202285c-18.870857 33.938286-38.239086 43.680914-58.046172 29.257143C0 740.205714-3.042743 578.384457 27.735771 556.383086c20.509257-14.687086 40.521143-5.266286 60.035658 28.350171v-202.810514c0-27.326171 9.8304-49.649371 29.461942-66.998857 19.6608-17.378743 39.175314-24.810057 58.514286-22.3232zM175.542857 380.342857v526.628572h672.914286V380.342857H175.542857z" fill="#ffffff" p-id="2769"></path><path d="M365.714286 658.285714m-73.142857 0a73.142857 73.142857 0 1 0 146.285714 0 73.142857 73.142857 0 1 0-146.285714 0Z" fill="#ffffff" p-id="2770"></path><path d="M687.542857 658.285714m-73.142857 0a73.142857 73.142857 0 1 0 146.285714 0 73.142857 73.142857 0 1 0-146.285714 0Z" fill="#ffffff" p-id="2771"></path></svg>