<?xml version="1.0" standalone="no"?><!DOCTYPE svg PUBLIC "-//W3C//DTD SVG 1.1//EN" "http://www.w3.org/Graphics/SVG/1.1/DTD/svg11.dtd"><svg t="1680500784779" class="icon" viewBox="0 0 1024 1024" version="1.1" xmlns="http://www.w3.org/2000/svg" p-id="6881" width="128" height="128" xmlns:xlink="http://www.w3.org/1999/xlink"><path d="M455.6 908.1c18.5 2.6 37.2 3.9 56.1 3.9 220.8 0 400.5-179.7 400.5-400.5S732.5 111 511.7 111c-19.1 0-37.8 1.3-56.2 3.9-159.8 60.8-273.4 215.4-273.4 396.5 0.1 181.4 113.7 336 273.5 396.7z" fill="#91B4FF" p-id="6882"></path><path d="M377.3 670.5c-6 0-12.1-2.3-16.7-6.9-9.2-9.2-9.2-24.2 0-33.4l270.7-270.7c9.2-9.2 24.2-9.2 33.4 0s9.2 24.2 0 33.4L394 663.6c-4.6 4.6-10.7 6.9-16.7 6.9z" fill="#3778FF" p-id="6883"></path><path d="M646.3 670.5c-6 0-12.1-2.3-16.7-6.9L358.9 393c-9.2-9.2-9.2-24.2 0-33.4s24.2-9.2 33.4 0L663 630.2c9.2 9.2 9.2 24.2 0 33.4-4.6 4.6-10.7 6.9-16.7 6.9z" fill="#3778FF" p-id="6884"></path><path d="M184.8 805.3c-6.8 0-13.5-2.9-18.2-8.6-13.6-16.4-26.1-34-37.2-52.2-6.8-11.1-3.3-25.7 7.9-32.5 11.1-6.8 25.7-3.3 32.5 7.9 9.9 16.3 21.1 32 33.3 46.7 8.3 10 6.9 24.9-3.1 33.3-4.6 3.6-9.9 5.4-15.2 5.4z" fill="#3778FF" p-id="6885"></path><path d="M511.4 959.3c-93.1 0-182.3-28.3-258-81.8-10.7-7.5-13.2-22.3-5.7-32.9 7.5-10.7 22.3-13.2 32.9-5.7 67.7 47.8 147.5 73.1 230.8 73.1 220.8 0 400.5-179.7 400.5-400.5S732.2 111 511.4 111 111 290.8 111 511.6c0 38.3 5.4 76.2 16.1 112.6 3.7 12.5-3.5 25.6-16.1 29.3-12.6 3.7-25.7-3.5-29.3-16-11.9-40.7-17.9-83.1-17.9-125.9 0-246.9 200.8-447.7 447.7-447.7s447.7 200.8 447.7 447.7c-0.1 246.9-200.9 447.7-447.8 447.7z" fill="#3778FF" p-id="6886"></path></svg>