<?xml version="1.0" standalone="no"?><!DOCTYPE svg PUBLIC "-//W3C//DTD SVG 1.1//EN" "http://www.w3.org/Graphics/SVG/1.1/DTD/svg11.dtd"><svg t="1680591363596" class="icon" viewBox="0 0 1024 1024" version="1.1" xmlns="http://www.w3.org/2000/svg" p-id="3166" width="128" height="128" xmlns:xlink="http://www.w3.org/1999/xlink"><path d="M309.056 837.824h401.152a247.04 247.04 0 0 0 175.744-73.024 247.104 247.104 0 0 0 73.088-175.808 247.04 247.04 0 0 0-73.088-175.744 247.04 247.04 0 0 0-175.744-73.088H255.296a29.952 29.952 0 1 0 0 59.84h454.912a189.184 189.184 0 0 1 188.992 188.992 189.184 189.184 0 0 1-188.992 188.992H309.056a29.952 29.952 0 0 0 0 59.84z" fill="#000000" fill-opacity=".65" p-id="3167"></path><path d="M80.064 335.104l187.136-143.488c20.096-15.488 45.248 3.84 45.248 34.688v287.04c0 30.912-25.152 50.176-45.248 34.752L80 404.608c-20.096-15.488-20.096-54.08 0-69.504z" fill="#FF6900" p-id="3168"></path></svg>